<svg data-bbox="36 36 128 128" viewBox="0 0 200 200" xmlns="http://www.w3.org/2000/svg" data-type="shape"><g><path d="M164 120v26.667c0 9.558-7.775 17.333-17.333 17.333H53.333C43.775 164 36 156.225 36 146.667V120a4 4 0 0 1 8 0v26.667c0 5.146 4.187 9.333 9.333 9.333h93.334c5.146 0 9.333-4.187 9.333-9.333V120a4 4 0 0 1 8 0zm-66.831 2.826c.186.187.392.354.612.501.099.066.206.112.309.168.125.069.246.144.379.199.133.055.271.087.408.127.113.033.221.077.339.1.259.051.521.079.784.079s.525-.028.783-.079c.117-.023.226-.067.339-.1.137-.04.275-.072.408-.127.133-.055.254-.131.38-.2.103-.056.21-.102.308-.167.22-.147.426-.314.612-.501l33.33-33.331a4 4 0 1 0-5.656-5.656L104 110.343V40a4 4 0 0 0-8 0v70.343L69.495 83.839a4 4 0 1 0-5.656 5.656l33.33 33.331z"/></g></svg>