<svg data-bbox="36 39.501 128 121" viewBox="0 0 200 200" xmlns="http://www.w3.org/2000/svg" data-type="shape"><g><path d="M164 156.533c0 2.191-1.791 3.967-4 3.967h-60c-2.209 0-4-1.776-4-3.967s1.791-3.967 4-3.967h60c2.209-.001 4 1.775 4 3.967zm-11.173-86.35-83.333 82.553a4.009 4.009 0 0 1-1.858 1.042l-26.667 6.604a4.016 4.016 0 0 1-3.798-1.045 3.944 3.944 0 0 1-1.051-3.768l6.667-26.417a3.96 3.96 0 0 1 1.053-1.843l83.334-82.553h-.001c7.074-7.007 18.58-7.007 25.654 0 3.427 3.396 5.314 7.911 5.314 12.714.001 4.802-1.887 9.317-5.314 12.713zm-2.685-12.714a9.927 9.927 0 0 0-2.969-7.1c-3.955-3.917-10.391-3.919-14.346 0h-.001l-82.548 81.776-4.779 18.936 19.125-4.736 82.55-81.777a9.926 9.926 0 0 0 2.968-7.099z"/></g></svg>