<svg data-bbox="23 36 154 128" viewBox="0 0 200 200" xmlns="http://www.w3.org/2000/svg" data-type="shape"><g><path d="M137.182 146.667V160a4 4 0 0 1-8 0v-13.333c0-12.499-10.113-22.667-22.545-22.667H53.546C41.114 124 31 134.168 31 146.667V160a4 4 0 0 1-8 0v-13.333C23 129.757 36.703 116 53.546 116h53.091c16.842 0 30.545 13.757 30.545 30.667zm-87.636-80C49.546 49.757 63.248 36 80.091 36s30.546 13.757 30.546 30.667-13.703 30.666-30.546 30.666-30.545-13.757-30.545-30.666zm8 0c0 12.499 10.113 22.667 22.545 22.667s22.546-10.168 22.546-22.667S92.522 44 80.091 44 57.546 54.168 57.546 66.667zm96.549 50.328a4.001 4.001 0 0 0-4.876 2.868 3.999 3.999 0 0 0 2.868 4.876c9.95 2.581 16.905 11.599 16.913 21.928V160a4 4 0 0 0 8 0v-13.336c-.01-13.974-9.429-26.174-22.905-29.669zm-26.553-80.002a4.001 4.001 0 0 0-1.992 7.748c12.048 3.099 19.338 15.474 16.251 27.586-2.044 8.022-8.271 14.28-16.251 16.333a4 4 0 0 0 1.992 7.748c10.811-2.781 19.245-11.251 22.011-22.105 4.175-16.378-5.699-33.115-22.011-37.31z"/></g></svg>