<svg data-bbox="36 36 128 128" viewBox="0 0 200 200" xmlns="http://www.w3.org/2000/svg" data-type="shape"><g><path d="m162.828 70.505-33.333-33.333A4.001 4.001 0 0 0 126.667 36H53.333C43.775 36 36 43.775 36 53.333v93.334C36 156.225 43.775 164 53.333 164h93.334c9.558 0 17.333-7.775 17.333-17.333V73.333a4 4 0 0 0-1.172-2.828zM129.333 156H70.667v-45.333h58.666V156zM156 146.667c0 5.146-4.187 9.333-9.333 9.333h-9.334v-49.333a4 4 0 0 0-4-4H66.667a4 4 0 0 0-4 4V156h-9.334c-5.146 0-9.333-4.187-9.333-9.333V53.333C44 48.187 48.187 44 53.333 44h9.334v29.333a4 4 0 0 0 4 4H120a4 4 0 0 0 0-8H70.667V44h54.343L156 74.99v71.677z"/></g></svg>