<svg xmlns:dc="http://purl.org/dc/elements/1.1/" xmlns:cc="http://creativecommons.org/ns#" xmlns:rdf="http://www.w3.org/1999/02/22-rdf-syntax-ns#" xmlns:svg="http://www.w3.org/2000/svg" xmlns="http://www.w3.org/2000/svg" xmlns:xlink="http://www.w3.org/1999/xlink" id="svg115346" viewBox="0 0 1024 768" version="1.1"><metadata id="metadata115352"><rdf:rdf><cc:work rdf:about=""><dc:format>image/svg+xml</dc:format><dc:type rdf:resource="http://purl.org/dc/dcmitype/StillImage"/></cc:work></rdf:rdf></metadata><defs id="defs115350"/><linearGradient spreadMethod="pad" y2="30%" x2="-10%" y1="120%" x1="30%" id="3d_gradient2-logo-fb2d7aac-c5b3-44e0-b4d2-396261cfd656"><stop id="stop115327" stop-opacity="1" stop-color="#ffffff" offset="0%"/><stop id="stop115329" stop-opacity="1" stop-color="#000000" offset="100%"/></linearGradient><linearGradient gradientTransform="rotate(-30)" spreadMethod="pad" y2="30%" x2="-10%" y1="120%" x1="30%" id="3d_gradient3-logo-fb2d7aac-c5b3-44e0-b4d2-396261cfd656"><stop id="stop115332" stop-opacity="1" stop-color="#ffffff" offset="0%"/><stop id="stop115334" stop-opacity="1" stop-color="#cccccc" offset="50%"/><stop id="stop115336" stop-opacity="1" stop-color="#000000" offset="100%"/></linearGradient><g id="logo-group"><image xlink:href="" id="container" x="272" y="144" width="480" height="480" style="display: none;" transform="translate(0 0)"/><g id="logo-center" transform="translate(0 0)"><image xlink:href="" id="icon_container" style="display: none;" x="0" y="0"/><g id="slogan" style="font-style:normal;font-weight:400;font-size:32px;line-height:1;font-family:Montserrat;font-variant-ligatures:none;text-align:center;text-anchor:middle" transform="translate(0 0)"/><g id="title" style="font-style:normal;font-weight:700;font-size:72px;line-height:1;font-family:'Brandmark1 Bold';font-variant-ligatures:normal;text-align:center;text-anchor:middle" transform="translate(0 0)"><path id="path115355" style="font-style:normal;font-weight:700;font-size:72px;line-height:1;font-family:'Brandmark1 Bold';font-variant-ligatures:normal;text-align:center;text-anchor:middle" d="m 372.0545,-27.504 v -10.08 h -11.448 v -12.888 l -10.8,3.6 v 27.936 c 0,3.024 0.576,5.904 1.728,8.64 1.08,2.664 2.736,5.04 4.752,7.056 2.016,2.088 4.392,3.672 7.056,4.824 2.736,1.152 5.688,1.728 8.712,1.728 v -10.8 c -6.336,0 -11.448,-5.112 -11.448,-11.448 v -8.568 z" stroke-width="0" stroke-linejoin="miter" stroke-miterlimit="2" fill="#46426e" stroke="#46426e" transform="translate(0 311.06043999999997) translate(189.52032745000008 18.195440000000005) scale(1.73) translate(-349.8065 50.472)"/><path id="path115357" style="font-style:normal;font-weight:700;font-size:72px;line-height:1;font-family:'Brandmark1 Bold';font-variant-ligatures:normal;text-align:center;text-anchor:middle" d="m 378.55813,16.776 h 11.44799 l 21.88801,-54.36 h -11.52001 l -9.072,22.752 -9.64799,-22.752 h -11.88 l 16.05599,36.288 z" stroke-width="0" stroke-linejoin="miter" stroke-miterlimit="2" fill="#46426e" stroke="#46426e" transform="translate(0 311.06043999999997) translate(234.44432735000007 40.49168) scale(1.73) translate(-369.77413 37.584)"/><path id="path115359" style="font-style:normal;font-weight:700;font-size:72px;line-height:1;font-family:'Brandmark1 Bold';font-variant-ligatures:normal;text-align:center;text-anchor:middle" d="m 452.02625,-25.416 c -1.08,-2.448 -2.52,-4.608 -4.392,-6.552 -1.944,-1.872 -4.104,-3.312 -6.552,-4.392 -2.52,-1.08 -5.184,-1.584 -7.992,-1.584 -2.736,0 -5.472,0.504 -7.992,1.584 -2.448,1.08 -4.608,2.52 -6.552,4.392 -1.872,1.872 -3.312,4.104 -4.392,6.552 -1.008,2.52 -1.584,5.184 -1.584,7.992 v 30.6 l 10.8,3.6 V 0.648 c 0.576,0.288 1.152,0.576 1.728,0.792 2.52,1.08 5.256,1.656 7.992,1.656 2.736,0 5.472,-0.576 7.992,-1.656 2.448,-1.008 4.608,-2.448 6.552,-4.392 1.872,-1.872 3.312,-4.032 4.392,-6.48 1.08,-2.52 1.584,-5.256 1.584,-7.992 0,-2.808 -0.504,-5.472 -1.584,-7.992 z m -18.936,17.712 c -5.328,0 -9.72,-4.392 -9.72,-9.72 0,-5.328 4.392,-9.72 9.72,-9.72 5.328,0 9.72,4.392 9.72,9.72 0,5.328 -4.392,9.72 -9.72,9.72 z" stroke-width="0" stroke-linejoin="miter" stroke-miterlimit="2" fill="#46426e" stroke="#46426e" transform="translate(0 311.06043999999997) translate(318.86161495000005 39.86887999999999) scale(1.73) translate(-412.57025 37.944)"/><path id="path115361" style="font-style:normal;font-weight:700;font-size:72px;line-height:1;font-family:'Brandmark1 Bold';font-variant-ligatures:normal;text-align:center;text-anchor:middle" d="m 474.0785,2.808 c 2.808,0 5.544,-0.576 8.136,-1.728 2.52,-1.08 4.752,-2.664 6.624,-4.608 l -7.632,-7.2 c -1.872,2.016 -4.392,3.096 -7.128,3.096 -3.528,0 -6.624,-1.872 -8.352,-4.608 h 28.584 v -5.256 c 0,-5.4 -2.088,-10.512 -5.904,-14.328 -3.816,-3.816 -8.928,-5.976 -14.328,-5.976 -5.472,0 -10.512,2.16 -14.4,5.976 -3.816,3.816 -5.904,8.928 -5.904,14.328 0,5.4 2.088,10.512 5.904,14.328 3.888,3.816 8.928,5.976 14.4,5.976 z m -8.352,-25.488 c 1.728,-2.808 4.824,-4.68 8.352,-4.68 3.456,0 6.552,1.872 8.352,4.68 z" stroke-width="0" stroke-linejoin="miter" stroke-miterlimit="2" fill="#46426e" stroke="#46426e" transform="translate(0 311.06043999999997) translate(400.52496745 40.11800000000001) scale(1.73) translate(-453.7745 37.8)"/><path id="path115363" style="font-style:normal;font-weight:700;font-size:72px;line-height:1;font-family:'Brandmark1 Bold';font-variant-ligatures:normal;text-align:center;text-anchor:middle" d="m 497.67537,2.52 h 36.57601 V -8.208 H 508.97937 V -53.64 l -11.304,3.6 z" stroke-width="0" stroke-linejoin="miter" stroke-miterlimit="2" fill="#8a55f8" stroke="#8a55f8" transform="translate(0 311.06043999999997) translate(486.85347255 12.714799999999997) scale(1.73) translate(-497.67537 53.64)"/><path id="path115365" style="font-style:normal;font-weight:700;font-size:72px;line-height:1;font-family:'Brandmark1 Bold';font-variant-ligatures:normal;text-align:center;text-anchor:middle" d="m 553.9535,2.808 c 2.808,0 5.544,-0.576 8.136,-1.728 2.52,-1.08 4.752,-2.664 6.624,-4.608 l -7.632,-7.2 c -1.872,2.016 -4.392,3.096 -7.128,3.096 -3.528,0 -6.624,-1.872 -8.352,-4.608 h 28.584 v -5.256 c 0,-5.4 -2.088,-10.512 -5.904,-14.328 -3.816,-3.816 -8.928,-5.976 -14.328,-5.976 -5.472,0 -10.512,2.16 -14.4,5.976 -3.816,3.816 -5.904,8.928 -5.904,14.328 0,5.4 2.088,10.512 5.904,14.328 3.888,3.816 8.928,5.976 14.4,5.976 z m -8.352,-25.488 c 1.728,-2.808 4.824,-4.68 8.352,-4.68 3.456,0 6.552,1.872 8.352,4.68 z" stroke-width="0" stroke-linejoin="miter" stroke-miterlimit="2" fill="#8c56f8" stroke="#8c56f8" transform="translate(0 311.06043999999997) translate(559.4687174500001 40.11800000000001) scale(1.73) translate(-533.6495 37.8)"/><path id="path115367" style="font-style:normal;font-weight:700;font-size:72px;line-height:1;font-family:'Brandmark1 Bold';font-variant-ligatures:normal;text-align:center;text-anchor:middle" d="m 608.65437,-32.112 c -3.81599,-3.816 -8.928,-5.904 -14.256,-5.904 -5.4,0 -10.51199,2.088 -14.32799,5.904 -3.81601,3.816 -5.904,8.856 -5.904,14.256 0,5.4 2.08799,10.44 5.904,14.256 3.816,3.816 8.92799,5.904 14.32799,5.904 3.168,0 6.264,-0.72 9,-2.088 -1.07999,3.96 -4.75199,6.84 -9,6.84 -2.448,0 -4.75199,-0.936 -6.48,-2.592 l -7.48799,7.848 c 3.81599,3.6 8.712,5.544 13.89599,5.544 5.4,0 10.51201,-2.088 14.328,-5.904 3.816,-3.816 5.904,-8.856 5.904,-14.256 v -15.552 c 0,-5.4 -2.088,-10.44 -5.904,-14.256 z m -14.256,23.616 c -5.18399,0 -9.432,-4.176 -9.432,-9.36 0,-5.184 4.24801,-9.432 9.432,-9.432 5.184,0 9.36,4.248 9.36,9.432 0,5.184 -4.248,9.36 -9.36,9.36 z" stroke-width="0" stroke-linejoin="miter" stroke-miterlimit="2" fill="#8d57f8" stroke="#8d57f8" transform="translate(0 311.06043999999997) translate(639.9429198500001 39.74432) scale(1.73) translate(-574.16638 38.016)"/><path id="path115369" style="font-style:normal;font-weight:700;font-size:72px;line-height:1;font-family:'Brandmark1 Bold';font-variant-ligatures:normal;text-align:center;text-anchor:middle" d="m 647.21825,-38.016 0.072,2.304 c -2.88,-1.44 -6.048,-2.232 -9.288,-2.232 -2.736,0 -5.472,0.504 -7.992,1.584 -2.448,1.08 -4.608,2.52 -6.552,4.392 -1.872,1.872 -3.312,4.104 -4.392,6.552 -1.008,2.52 -1.584,5.256 -1.584,7.992 0,2.736 0.576,5.472 1.584,7.992 1.08,2.448 2.52,4.608 4.392,6.552 1.944,1.872 4.104,3.312 6.552,4.392 2.52,1.008 5.256,1.584 7.992,1.584 3.24,0 6.408,-0.792 9.288,-2.232 l -0.072,1.656 h 10.8 v -40.536 z m -4.32,28.944 c -1.44,0.864 -3.168,1.368 -4.896,1.368 -5.328,0 -9.72,-4.392 -9.72,-9.72 0,-5.328 4.392,-9.72 9.72,-9.72 1.872,0 3.744,0.504 5.256,1.584 1.584,0.936 2.808,2.376 3.528,4.032 0.648,1.296 0.936,2.664 0.936,4.104 0,1.728 -0.432,3.384 -1.296,4.896 -0.864,1.44 -2.016,2.664 -3.528,3.456 z" stroke-width="0" stroke-linejoin="miter" stroke-miterlimit="2" fill="#8e57f8" stroke="#8e57f8" transform="translate(0 311.06043999999997) translate(725.2593749500002 39.74432) scale(1.73) translate(-617.48225 38.016)"/><path id="path115371" style="font-style:normal;font-weight:700;font-size:72px;line-height:1;font-family:'Brandmark1 Bold';font-variant-ligatures:normal;text-align:center;text-anchor:middle" d="m 663.74338,2.52 h 10.87199 v -58.032 l -10.87199,3.6 z" stroke-width="0" stroke-linejoin="miter" stroke-miterlimit="2" fill="#8f58f8" stroke="#8f58f8" transform="translate(0 311.06043999999997) translate(815.67112985 9.476240000000004) scale(1.73) translate(-663.74338 55.512)"/></g><image xlink:href="" id="icon" style="display: none;" x="0" y="0"/></g></g></svg>