<?xml version="1.0" encoding="UTF-8"?>
<svg id="_레이어_2" data-name="레이어 2" xmlns="http://www.w3.org/2000/svg" viewBox="0 0 1463.38 1463.38">
  <defs>
    <style>
      .cls-1 {
        fill: #1db807;
        stroke-width: 0px;
      }

      .cls-2 {
        fill: #fff;
        stroke: #e5f8e2;
        stroke-miterlimit: 10;
        stroke-width: 24px;
      }
    </style>
  </defs>
  <g id="icon-0">
    <circle class="cls-2" cx="731.69" cy="731.69" r="719.69"/>
    <g>
      <g id="textblocktransform">
        <path id="text-0" class="cls-1" d="M367.83,976.18l-67.78,9.95-3.15-21.49,18.07-2.65-3.3-22.45-33.87-29.58-9.05,1.33-3.15-21.49,56.32-8.27,3.15,21.49-6.84,1.01,14.38,12.98,8.3-16.31-6.87,1.01-3.15-21.49,39.5-5.8,3.15,21.49-9.02,1.33-21.02,38.99,3.1,21.13,18.07-2.65,3.15,21.49ZM413.95,971.51h0c-7.84.93-14.77.34-20.79-1.78-6.02-2.12-10.87-5.58-14.56-10.38-3.68-4.8-5.95-10.77-6.79-17.9h0c-.85-7.16-.04-13.51,2.41-19.04,2.46-5.53,6.36-10.05,11.72-13.55,5.35-3.48,11.95-5.69,19.79-6.62h0c7.84-.93,14.77-.33,20.79,1.81,6.02,2.15,10.87,5.63,14.53,10.44,3.68,4.8,5.95,10.79,6.8,17.95h0c.85,7.13.04,13.46-2.42,18.99-2.44,5.53-6.34,10.03-11.7,13.5-5.36,3.47-11.96,5.66-19.8,6.59ZM411.8,953.33h0c5.62-.67,7.78-6.48,6.48-17.44h0c-1.3-10.96-4.76-16.11-10.38-15.44h0c-5.64.67-7.8,6.48-6.5,17.45h0c1.3,10.96,4.77,16.11,10.4,15.44ZM503.66,961.41l-44.87,3.88-1.63-18.82,9.11-.79-2.49-28.79-9.11.79-1.48-17.12,38.26-7.04.74,8.54c2.36-2.96,5.42-5.34,9.19-7.16,3.77-1.82,7.89-2.92,12.36-3.3h0c7.57-.65,13.31,1.01,17.21,4.98,3.9,3.97,6.23,10.28,6.97,18.91h0l2.06,23.83,8.77-.76,1.63,18.82-38.89,3.36-3.69-42.65c-.21-2.44-.89-4.17-2.03-5.19-1.14-1.01-2.56-1.44-4.27-1.29h0c-1.43.12-2.81.66-4.15,1.62-1.32.96-2.4,2.21-3.25,3.75h0l2.26,26.1,5.66-.49,1.63,18.82ZM589.17,938.02l19.93-1.07c8.18-.44,14.44.89,18.79,3.98,4.35,3.09,6.68,7.7,7.01,13.82h0c.29,5.32-1.29,9.9-4.72,13.74-3.43,3.84-8.34,6.86-14.73,9.05-6.41,2.2-13.95,3.53-22.64,4h0c-8.58.46-15.61.07-21.08-1.18s-9.52-3.07-12.15-5.46c-2.63-2.41-4.02-5.1-4.18-8.06h0c-.12-2.27.61-4.37,2.21-6.31,1.61-1.94,3.71-3.4,6.3-4.38h0c-3.15-2.26-4.83-5.37-5.04-9.31h0c-.19-3.47.9-6.46,3.27-8.96,2.37-2.5,5.82-4.45,10.37-5.83h0c-5.7-1.34-10.5-3.64-14.38-6.92-3.9-3.29-6-7.61-6.28-12.97h0c-.38-7.04,2.57-12.9,8.84-17.55,6.26-4.64,15.63-7.29,28.12-7.96h0c6.59-.35,12.53.17,17.82,1.56h0l26.02-3.97,1.05,19.49-7.92.42c.37,1.28.59,2.61.66,4.01h0c.38,7.03-2.68,12.85-9.16,17.47-6.49,4.62-15.93,7.26-28.33,7.92h0c-3.02.16-4.49.97-4.41,2.44h0c.08,1.52,1.63,2.2,4.65,2.04h0ZM589.52,899.98h0c-2.55.08-4.66,1.06-6.32,2.93-1.67,1.89-2.41,4.41-2.25,7.55h0c.17,3.19,1.18,5.64,3.02,7.34,1.82,1.7,4.03,2.47,6.63,2.29h0c2.6-.19,4.72-1.22,6.37-3.1,1.65-1.87,2.39-4.38,2.22-7.52h0c-.17-3.1-1.17-5.49-3.01-7.16-1.84-1.67-4.06-2.45-6.66-2.34h0ZM574.33,962.27h0c.13,2.51,1.54,4.42,4.22,5.73,2.68,1.31,6.59,1.82,11.73,1.55h0c5.62-.3,9.63-1.16,12.04-2.59,2.41-1.44,3.56-3.16,3.45-5.17h0c-.11-2.09-1.68-3.06-4.69-2.89h0l-19.31,1.03c-2.56.14-4.94.09-7.12-.14h0c-.25.82-.36,1.65-.31,2.48h0ZM679.24,952.88h0c-4.28.11-8.45-.28-12.5-1.17-4.06-.91-7.67-2.26-10.83-4.06h0l-1.81,4.77-13.85.36-.63-23.68,16.11-.42c1.06,3.26,2.82,5.79,5.26,7.62,2.44,1.82,5.07,2.7,7.88,2.62h0c3.68-.1,5.49-1.53,5.42-4.31h0c-.05-2.01-.92-3.53-2.61-4.57-1.69-1.06-3.85-1.93-6.49-2.61s-5.44-1.43-8.39-2.24c-2.97-.8-5.79-1.93-8.45-3.39s-4.85-3.51-6.58-6.12c-1.73-2.63-2.65-6.11-2.77-10.43h0c-.1-3.89.84-7.46,2.84-10.71,1.99-3.25,5.08-5.88,9.25-7.9,4.16-2.01,9.42-3.1,15.8-3.27h0c4.12-.11,7.95.22,11.48.98,3.51.76,6.83,2.05,9.96,3.85h0l1.41-4.26,13.83-.36.57,21.66-16.11.42c-1.17-3.15-2.79-5.45-4.87-6.9-2.08-1.43-4.29-2.11-6.63-2.05h0c-4.12.11-6.15,1.42-6.08,3.93h0c.05,1.76.94,3.14,2.68,4.12,1.72.99,3.93,1.82,6.62,2.5,2.67.68,5.52,1.47,8.53,2.37,2.99.88,5.85,2.11,8.56,3.68,2.71,1.55,4.95,3.68,6.72,6.37,1.77,2.68,2.71,6.2,2.82,10.57h0c.18,6.67-2.09,12.05-6.78,16.14-4.7,4.09-11.47,6.25-20.32,6.49h0ZM735.42,952.22h0c-4.33,0-8.18-.88-11.55-2.61-3.38-1.75-6.03-4.17-7.92-7.24-1.9-3.06-2.85-6.58-2.84-10.56h0c.01-6.22,2.41-11.17,7.2-14.87,4.79-3.68,11.17-5.51,19.13-5.49h0c2.78,0,5.42.18,7.94.51,2.52.34,5.07.91,7.67,1.72h0v-1.39c.01-3.82-1.15-6.59-3.47-8.31-2.32-1.73-6.05-2.6-11.18-2.61h0c-3.69,0-7.41.47-11.19,1.42-3.79.97-7.24,2.31-10.36,4.02h0l-1.7-.76.03-18.36c4.42-1.72,9.44-3.01,15.04-3.88,5.61-.88,11.24-1.32,16.9-1.31h0c12.56.02,21.72,2.14,27.5,6.34,5.79,4.22,8.68,10.97,8.66,20.24h0l-.04,23.24h8.2s-.03,18.9-.03,18.9l-34.4-.06-3.07-9.88c-1.98,3.44-4.78,6.12-8.4,8.05-3.64,1.95-7.68,2.92-12.13,2.91h0ZM748.6,936.13h0c1.13,0,2.32-.2,3.56-.6,1.24-.4,2.19-.93,2.86-1.59h0l.02-10.53c-1.05-.46-2.1-.77-3.17-.95-1.07-.16-2.06-.24-2.99-.24h0c-2.15,0-3.95.62-5.4,1.88-1.45,1.25-2.18,2.93-2.18,5.03h0c0,2.15.67,3.85,2.01,5.11,1.34,1.26,3.1,1.89,5.29,1.9ZM845.61,953.01l-45.01-1.55.65-18.88,9.14.31,1-28.88-9.14-.32.59-17.18,38.83-2.38-.29,8.56c2.7-2.65,6.02-4.65,9.98-6,3.96-1.35,8.18-1.95,12.67-1.79h0c7.59.26,13.09,2.6,16.48,7.02,3.4,4.42,4.94,10.95,4.64,19.61h0l-.83,23.9,8.8.3-.65,18.88-39.01-1.35,1.47-42.78c.08-2.44-.38-4.24-1.39-5.4-1.01-1.14-2.37-1.73-4.08-1.79h0c-1.43-.05-2.87.32-4.31,1.11-1.43.79-2.65,1.9-3.68,3.34h0l-.9,26.18,5.68.2-.65,18.88ZM982.11,961.22l-57.69-4.59,1.72-21.65,10.03.8,4.5-56.62-10.03-.8,1.72-21.65,54.16,4.31c13.39,1.06,23.32,4.17,29.8,9.31,6.48,5.14,9.35,12.27,8.63,21.4h0c-.38,4.82-1.91,9-4.57,12.54-2.65,3.54-6.29,6.11-10.94,7.72h0c4.67,2.3,8.23,5.49,10.67,9.57,2.46,4.1,3.47,8.85,3.05,14.25h0c-.73,9.16-4.63,15.93-11.71,20.33-7.09,4.38-16.87,6.07-29.34,5.08ZM981.01,881.74h0l-8.41-.67-1.53,19.2,8.41.67c7.8.62,11.95-2.27,12.46-8.68h0c.51-6.39-3.14-9.89-10.94-10.52ZM969.69,917.71l-1.69,21.23,9.74.78c8.03.64,12.32-2.58,12.88-9.65h0c.56-7.09-3.17-10.95-11.19-11.59h0l-9.74-.77ZM1058.46,969.88h0c-15.44-1.78-22.16-11.35-20.15-28.7h0l2.62-22.64-8.74-1.01,1.97-17.07,39.21.79-5.02,43.46c-.3,2.55.06,4.45,1.05,5.71,1,1.26,2.37,1.99,4.13,2.19h0c3.12.36,5.73-.96,7.82-3.98h0l2.9-25.09-5.65-.65,1.97-17.07,36.08.43-5.72,49.47,8.77,1.01-2.17,18.77-38.15-4.41.85-7.31c-2.81,2.38-6.02,4.12-9.65,5.21-3.61,1.11-7.64,1.41-12.1.9h0ZM1162.04,983.14h0c-4.23-.62-8.28-1.71-12.13-3.27-3.85-1.58-7.17-3.53-9.98-5.85h0l-2.6,4.39-13.71-2,3.41-23.44,15.94,2.32c.5,3.39,1.79,6.19,3.89,8.4,2.1,2.21,4.53,3.52,7.32,3.92h0c3.65.53,5.67-.58,6.07-3.33h0c.29-1.99-.31-3.64-1.79-4.95-1.48-1.33-3.47-2.55-5.95-3.67-2.48-1.12-5.11-2.33-7.89-3.64-2.8-1.29-5.38-2.88-7.75-4.78s-4.19-4.28-5.44-7.15c-1.26-2.88-1.57-6.47-.95-10.75h0c.56-3.85,2.1-7.21,4.62-10.08,2.52-2.86,6-4.93,10.46-6.21,4.44-1.28,9.81-1.46,16.12-.54h0c4.08.59,7.79,1.57,11.14,2.92,3.33,1.35,6.38,3.18,9.15,5.49h0l2.11-3.95,13.69,1.99-3.12,21.44-15.94-2.32c-.61-3.3-1.82-5.84-3.63-7.62-1.81-1.76-3.87-2.81-6.19-3.15h0c-4.08-.59-6.3.35-6.66,2.84h0c-.25,1.74.39,3.25,1.94,4.52,1.53,1.26,3.56,2.46,6.1,3.59,2.52,1.13,5.18,2.39,8,3.79,2.8,1.38,5.4,3.07,7.81,5.08,2.41,1.99,4.26,4.47,5.54,7.43,1.28,2.94,1.61,6.57.98,10.89h0c-.96,6.6-4.11,11.52-9.43,14.75-5.32,3.23-12.37,4.21-21.13,2.93h0Z"/>
      </g>
      <path class="cls-1" d="M663.14,477.24v19.59h-39.17c-9.8,0-19.59,9.79-19.59,19.58v254.6h19.59v39.17h39.17v-39.17h137.1v39.17h39.17v-39.17h19.59v-254.6c0-9.79-9.8-19.58-19.59-19.58h-39.17v-19.59h-137.1ZM643.55,536h176.26v97.92h-176.26v-97.92ZM663.14,692.67c10.85,0,19.59,8.74,19.59,19.59s-8.74,19.58-19.59,19.58-19.58-8.73-19.58-19.58c0-10.85,8.74-19.59,19.58-19.59ZM800.24,692.67c10.85,0,19.58,8.74,19.58,19.59s-8.74,19.58-19.58,19.58-19.59-8.73-19.59-19.58,8.74-19.59,19.59-19.59Z"/>
    </g>
  </g>
</svg>