<?xml version="1.0" encoding="UTF-8"?>
<svg id="_레이어_2" data-name="레이어 2" xmlns="http://www.w3.org/2000/svg" viewBox="0 0 604.88 44.02">
  <defs>
    <style>
      .cls-1 {
        fill: #1DB807;
      }

      .cls-1, .cls-2 {
        stroke-width: 0px;
      }
    </style>
  </defs>
  <g id="icon-0">
    <path class="cls-1" d="M251.23,0v2.59h-6c-1.5,0-3,1.29-3,2.59v33.66h3v5.18h6v-5.18h20.98v5.18h6v-5.18h3V5.18c0-1.29-1.5-2.59-3-2.59h-6V0h-20.98ZM248.23,7.77h26.98v12.95h-26.98V7.77ZM251.23,28.46c1.65,0,3,1.16,3,2.59s-1.35,2.59-3,2.59-3-1.16-3-2.59,1.35-2.59,3-2.59ZM272.21,28.46c1.65,0,3,1.16,3,2.59s-1.35,2.59-3,2.59-3-1.16-3-2.59,1.35-2.59,3-2.59Z"/>
    <path class="cls-2" d="M29.4,27.68v16.34h-12.64v-16.16L0,2.27h13.84l8.17,13.18,1.19,2.56,1.19-2.56,8.05-13.18h13.66l-16.7,25.41Z"/>
    <path class="cls-2" d="M93.7,22.43c0,12.7-10.14,21.59-23.5,21.59s-23.56-8.89-23.56-21.59S56.78.84,70.2.84s23.5,8.89,23.5,21.59ZM80.87,22.43c0-6.44-4.29-10.68-10.68-10.68s-10.68,4.23-10.68,10.68,4.17,10.62,10.68,10.62,10.68-4.17,10.68-10.62Z"/>
    <path class="cls-2" d="M141.77,44.02h-10.08l-17.24-21.59-.9-1.67v23.26h-12.64V2.27h10.74l16.58,20.64.9,1.67V2.27h12.64v41.75Z"/>
    <path class="cls-2" d="M191.03,37.93c-2.09,1.55-8.47,6.08-18.73,6.08-13.54,0-23.32-8.71-23.32-21.35S159.12.84,172.84.84c6.5,0,12.53,2.03,16.58,5.67l-5.85,8.29c-3.52-2.03-6.98-3.04-10.68-3.04-7.16,0-11.03,4.18-11.03,10.98,0,7.22,4.29,10.91,11.03,10.91,3.82,0,6.08-1.13,7.04-1.73v-3.7h-8.35v-9.78h19.44v19.5Z"/>
    <path class="cls-2" d="M234.56,30c0,9.3-7.99,14.02-18.61,14.02-7.63,0-13.9-2.45-18.31-5.07l3.88-9.66c4.29,2.39,9.6,4.06,14.49,4.06,2.56,0,5.61-.54,5.61-2.39,0-5.07-22.13-1.13-22.31-16.4-.06-8.95,7.34-13.84,18.19-13.84,5.73,0,10.68,1.37,15.21,3.52l-3.76,9.84c-4.77-2.09-9.07-2.92-12.29-2.92s-4.83,1.01-4.83,2.39c0,5.19,22.72.54,22.72,16.46Z"/>
    <path class="cls-2" d="M331.71,44.02h-10.08l-17.24-21.59-.9-1.67v23.26h-12.64V2.27h10.74l16.58,20.64.9,1.67V2.27h12.64v41.75Z"/>
    <path class="cls-2" d="M395.83,31.02c0,7.87-6.38,13-14.08,13h-24.93V2.27h22.07c9.12,0,14.49,4.35,14.49,10.86,0,3.1-1.19,5.84-2.98,8.11,3.52,2.21,5.43,5.67,5.43,9.78ZM369.04,12.05v6.38h10.26c1.79,0,2.68-1.61,2.68-3.28,0-2.15-1.37-3.1-3.46-3.1h-9.48ZM383.66,30.18c0-1.91-.83-3.34-3.76-3.34h-10.86v6.98h10.91c2.27,0,3.7-1.19,3.7-3.64Z"/>
    <path class="cls-2" d="M443.24,25.53c0,12.46-9.13,18.49-20.34,18.49s-20.4-6.02-20.4-18.49V1.49h12.64v23.98c0,4.83,3.34,7.45,7.75,7.45s7.63-2.62,7.63-7.45V1.49h12.7v24.04Z"/>
    <path class="cls-2" d="M486.24,30c0,9.3-7.99,14.02-18.61,14.02-7.63,0-13.9-2.45-18.31-5.07l3.88-9.66c4.29,2.39,9.6,4.06,14.49,4.06,2.56,0,5.61-.54,5.61-2.39,0-5.07-22.13-1.13-22.31-16.4-.06-8.95,7.34-13.84,18.19-13.84,5.73,0,10.68,1.37,15.21,3.52l-3.76,9.84c-4.77-2.09-9.07-2.92-12.29-2.92s-4.83,1.01-4.83,2.39c0,5.19,22.72.54,22.72,16.46Z"/>
    <g>
      <path class="cls-1" d="M524.29,18.43c2.14,0,5.25,1.41,5.25,4.05v1.89c0,1.83-1.32,3.06-3.3,3.57v1.8h6.17v3.33h-25.9v-3.33h7.06v-1.65c-2.11-.48-3.89-1.8-3.89-3.48v-2.37c0-2.46,2.87-3.81,4.98-3.81h9.63ZM525.18,35.41c2.67,0,4.29,1.26,4.29,3.18v2.16c0,2.31-1.91,3.27-3.93,3.27h-12.47c-2.14,0-3.93-1.23-3.93-2.91v-2.52c0-2.31,2.51-3.18,4.29-3.18h11.74ZM515.08,38.62c-1.29,0-1.68.42-1.68.87v.78c0,.9.82.84,1.68.84h9.14c.79,0,1.32-.42,1.32-.99v-.57c0-.6-.59-.93-1.48-.93h-8.97ZM523.49,25.33c1.32,0,2.08-.96,2.08-1.89s-.76-1.92-2.08-1.92h-7.82c-1.29,0-2.05.96-2.05,1.92s.76,1.89,2.05,1.89h7.82ZM521.94,29.74v-1.53h-4.09v1.53h4.09Z"/>
      <path class="cls-1" d="M547.54,20.35c.53,2.37,2.11,5.52,3.6,8.1.89,1.53,1.85,3.06,2.87,4.59h-5.21c-.43-.63-1.35-2.34-2.14-3.87-.49-.9-.99-1.86-1.52-2.91-1.22,2.43-2.14,4.26-3.86,6.78h-5.48c3.86-4.62,5.91-9.33,7.06-12.69h4.68ZM540.22,35.41h4.12v4.8h15.54v3.48h-19.66v-8.28ZM559.52,27.43v7.83h-4.26v-16.5h4.26v5.22h3.83v3.45h-3.83Z"/>
      <path class="cls-1" d="M573.84,42.13c-3.27,0-6.2-1.41-6.2-5.37v-11.13c0-3.99,4.39-5.4,7.32-5.4h1.52c3.56,0,7.32,1.44,7.32,5.43v10.83c0,3.27-2.44,5.64-6.53,5.64h-3.43ZM576.05,38.11c1.45,0,1.88-1.32,1.88-2.64v-9.84c0-1.35-.46-2.7-1.85-2.7h-1.45c-1.45,0-2.61,1.35-2.61,2.7v9.84c0,1.32-.3,2.64,2.64,2.64h1.39Z"/>
      <path class="cls-1" d="M597.46,27.13c4.35.63,7.42,3.12,7.42,7.56s-3.5,7.92-9.77,7.83c-1.98,0-5.31-1.26-6.96-2.76v-4.8c.79,1.71,4.98,3.48,6.96,3.48,2.77,0,4.52-1.23,4.52-3.87,0-4.11-5.28-5.07-8.61-5.88h-.03l4.68-5.76h-6.63v-2.67h14.09l-5.67,6.87Z"/>
    </g>
  </g>
</svg>