<?xml version="1.0" encoding="UTF-8"?>
<svg id="_레이어_2" data-name="레이어 2" xmlns="http://www.w3.org/2000/svg" viewBox="0 0 656.06 93.46">
  <defs>
    <style>
      .cls-1 {
        fill: #22930a;
        font-family: BMHANNAProOTF-KSCpc-EUC-H, 'BM Hanna Pro';
        font-size: 30px;
        letter-spacing: .05em;
      }

      .cls-2, .cls-3, .cls-4 {
        stroke-width: 0px;
      }

      .cls-3 {
        fill: #1db807;
      }

      .cls-4 {
        fill: #e8f9e8;
      }
    </style>
  </defs>
  <g id="icon-0">
    <rect class="cls-4" width="656.06" height="93.46" rx="15.29" ry="15.29"/>
    <g>
      <path class="cls-3" d="M277.03,23.63v2.75h-6c-1.5,0-3,1.37-3,2.75v35.7h3v5.49h6v-5.49h20.98v5.49h6v-5.49h3V29.13c0-1.37-1.5-2.75-3-2.75h-6v-2.75h-20.98ZM274.02,31.87h26.98v13.73h-26.98v-13.73ZM277.03,53.82c1.65,0,3,1.23,3,2.75s-1.35,2.75-3,2.75-3-1.23-3-2.75,1.35-2.75,3-2.75ZM298,53.82c1.65,0,3,1.23,3,2.75s-1.35,2.75-3,2.75-3-1.23-3-2.75,1.35-2.75,3-2.75Z"/>
      <path class="cls-2" d="M55.2,51.72v16.34h-12.64v-16.16l-16.76-25.59h13.84l8.17,13.18,1.19,2.56,1.19-2.56,8.05-13.18h13.66l-16.7,25.41Z"/>
      <path class="cls-2" d="M119.49,47.18c0,12.7-10.14,21.59-23.5,21.59s-23.56-8.89-23.56-21.59,10.14-21.59,23.56-21.59,23.5,8.89,23.5,21.59ZM106.67,47.18c0-6.44-4.29-10.68-10.68-10.68s-10.68,4.23-10.68,10.68,4.17,10.62,10.68,10.62,10.68-4.17,10.68-10.62Z"/>
      <path class="cls-2" d="M167.56,68.06h-10.08l-17.24-21.59-.9-1.67v23.26h-12.64V26.31h10.74l16.58,20.64.9,1.67v-22.31h12.64v41.75Z"/>
      <path class="cls-2" d="M216.82,62.69c-2.09,1.55-8.47,6.08-18.73,6.08-13.54,0-23.32-8.71-23.32-21.35s10.14-21.83,23.86-21.83c6.5,0,12.53,2.03,16.58,5.67l-5.85,8.29c-3.52-2.03-6.98-3.04-10.68-3.04-7.16,0-11.03,4.18-11.03,10.98,0,7.22,4.29,10.91,11.03,10.91,3.82,0,6.08-1.13,7.04-1.73v-3.7h-8.35v-9.78h19.44v19.5Z"/>
      <path class="cls-2" d="M260.36,54.88c0,9.3-7.99,14.02-18.61,14.02-7.63,0-13.9-2.45-18.31-5.07l3.88-9.66c4.29,2.39,9.6,4.06,14.49,4.06,2.56,0,5.61-.54,5.61-2.39,0-5.07-22.13-1.13-22.31-16.4-.06-8.95,7.34-13.84,18.19-13.84,5.73,0,10.68,1.37,15.21,3.52l-3.76,9.84c-4.77-2.09-9.07-2.92-12.29-2.92s-4.83,1.01-4.83,2.39c0,5.19,22.72.54,22.72,16.46Z"/>
      <path class="cls-2" d="M357.51,68.06h-10.08l-17.24-21.59-.9-1.67v23.26h-12.64V26.31h10.74l16.58,20.64.9,1.67v-22.31h12.64v41.75Z"/>
      <path class="cls-2" d="M421.62,55.06c0,7.87-6.38,13-14.08,13h-24.93V26.31h22.07c9.12,0,14.49,4.35,14.49,10.86,0,3.1-1.19,5.84-2.98,8.11,3.52,2.21,5.43,5.67,5.43,9.78ZM394.84,36.09v6.38h10.26c1.79,0,2.68-1.61,2.68-3.28,0-2.15-1.37-3.1-3.46-3.1h-9.48ZM409.45,54.22c0-1.91-.83-3.34-3.76-3.34h-10.86v6.98h10.91c2.27,0,3.7-1.19,3.7-3.64Z"/>
      <path class="cls-2" d="M469.03,50.34c0,12.46-9.13,18.49-20.34,18.49s-20.4-6.02-20.4-18.49v-24.04h12.64v23.98c0,4.83,3.34,7.45,7.75,7.45s7.63-2.62,7.63-7.45v-23.98h12.7v24.04Z"/>
      <path class="cls-2" d="M512.03,54.88c0,9.3-7.99,14.02-18.61,14.02-7.63,0-13.9-2.45-18.31-5.07l3.88-9.66c4.29,2.39,9.6,4.06,14.49,4.06,2.56,0,5.61-.54,5.61-2.39,0-5.07-22.13-1.13-22.31-16.4-.06-8.95,7.34-13.84,18.19-13.84,5.73,0,10.68,1.37,15.21,3.52l-3.76,9.84c-4.77-2.09-9.07-2.92-12.29-2.92s-4.83,1.01-4.83,2.39c0,5.19,22.72.54,22.72,16.46Z"/>
    </g>
    <text class="cls-1" transform="translate(530.98 63.81) scale(1.1 1)"><tspan x="0" y="0">용산03</tspan></text>
  </g>
</svg>