<?xml version="1.0" encoding="UTF-8"?>
<svg id="_레이어_2" data-name="레이어 2" xmlns="http://www.w3.org/2000/svg" viewBox="0 0 519.09 82.13">
  <defs>
    <style>
      .cls-1, .cls-2, .cls-3 {
        stroke-width: 0px;
      }

      .cls-2 {
        fill: #1db807;
      }

      .cls-3 {
        fill: #d9fcd9;
      }
    </style>
  </defs>
  <g id="icon-0">
    <rect class="cls-3" width="519.09" height="82.13" rx="15.29" ry="15.29"/>
    <g>
      <path class="cls-2" d="M265.4,19.47v2.66h-5.81c-1.45,0-2.9,1.33-2.9,2.66v34.56h2.9v5.32h5.81v-5.32h20.3v5.32h5.81v-5.32h2.9V24.79c0-1.33-1.45-2.66-2.9-2.66h-5.81v-2.66h-20.3ZM262.49,27.45h26.11v13.29h-26.11v-13.29ZM265.4,48.69c1.6,0,2.9,1.19,2.9,2.66s-1.3,2.66-2.9,2.66-2.9-1.19-2.9-2.66,1.3-2.66,2.9-2.66ZM285.7,48.69c1.6,0,2.9,1.19,2.9,2.66s-1.3,2.66-2.9,2.66-2.9-1.19-2.9-2.66,1.3-2.66,2.9-2.66Z"/>
      <path class="cls-1" d="M50.71,46.65v15.82h-12.24v-15.64l-16.22-24.76h13.39l7.91,12.76,1.15,2.48,1.15-2.48,7.79-12.76h13.22l-16.16,24.59Z"/>
      <path class="cls-1" d="M112.93,42.27c0,12.29-9.81,20.9-22.74,20.9s-22.8-8.6-22.8-20.9,9.81-20.9,22.8-20.9,22.74,8.6,22.74,20.9ZM100.52,42.27c0-6.23-4.16-10.33-10.33-10.33s-10.33,4.1-10.33,10.33,4.04,10.27,10.33,10.27,10.33-4.04,10.33-10.27Z"/>
      <path class="cls-1" d="M159.45,62.47h-9.76l-16.68-20.9-.87-1.62v22.51h-12.24V22.06h10.39l16.05,19.97.87,1.62v-21.59h12.24v40.41Z"/>
      <path class="cls-1" d="M207.13,57.27c-2.02,1.5-8.2,5.89-18.13,5.89-13.1,0-22.57-8.43-22.57-20.67s9.81-21.13,23.09-21.13c6.29,0,12.12,1.96,16.05,5.48l-5.66,8.02c-3.41-1.96-6.75-2.94-10.33-2.94-6.93,0-10.68,4.04-10.68,10.62,0,6.98,4.16,10.56,10.68,10.56,3.69,0,5.89-1.1,6.81-1.67v-3.58h-8.08v-9.47h18.82v18.88Z"/>
      <path class="cls-1" d="M249.26,49.71c0,9-7.74,13.57-18.01,13.57-7.39,0-13.45-2.37-17.72-4.91l3.75-9.35c4.16,2.31,9.29,3.92,14.03,3.92,2.48,0,5.43-.52,5.43-2.31,0-4.91-21.42-1.1-21.59-15.87-.06-8.66,7.1-13.39,17.61-13.39,5.54,0,10.33,1.33,14.72,3.41l-3.64,9.52c-4.62-2.02-8.77-2.83-11.89-2.83s-4.68.98-4.68,2.31c0,5.02,21.99.52,21.99,15.93Z"/>
      <path class="cls-1" d="M343.29,62.47h-9.76l-16.68-20.9-.87-1.62v22.51h-12.24V22.06h10.39l16.05,19.97.87,1.62v-21.59h12.24v40.41Z"/>
      <path class="cls-1" d="M405.34,49.88c0,7.62-6.18,12.58-13.62,12.58h-24.13V22.06h21.36c8.83,0,14.03,4.21,14.03,10.51,0,3-1.15,5.66-2.89,7.85,3.41,2.14,5.25,5.48,5.25,9.47ZM379.42,31.53v6.18h9.93c1.73,0,2.6-1.56,2.6-3.17,0-2.08-1.33-3-3.35-3h-9.18ZM393.56,49.08c0-1.85-.81-3.23-3.64-3.23h-10.51v6.75h10.56c2.19,0,3.58-1.15,3.58-3.52Z"/>
      <path class="cls-1" d="M451.22,45.32c0,12.06-8.83,17.89-19.68,17.89s-19.74-5.83-19.74-17.89v-23.26h12.24v23.21c0,4.68,3.23,7.21,7.5,7.21s7.39-2.54,7.39-7.21v-23.21h12.3v23.26Z"/>
      <path class="cls-1" d="M492.84,49.71c0,9-7.73,13.57-18.01,13.57-7.39,0-13.45-2.37-17.72-4.91l3.75-9.35c4.16,2.31,9.29,3.92,14.03,3.92,2.48,0,5.43-.52,5.43-2.31,0-4.91-21.42-1.1-21.59-15.87-.06-8.66,7.1-13.39,17.61-13.39,5.54,0,10.33,1.33,14.72,3.41l-3.64,9.52c-4.62-2.02-8.77-2.83-11.89-2.83s-4.68.98-4.68,2.31c0,5.02,21.99.52,21.99,15.93Z"/>
    </g>
  </g>
</svg>